Topo_nh_20160215.ufo
<glyph name="A" format="1">
  <advance width="572"/>
  <unicode hex="0041"/>
  <outline>
    <contour>
      <point x="428" y="248" type="line"/>
      <point x="131" y="248" type="line"/>
      <point x="131" y="170" type="line"/>
      <point x="428" y="170" type="line"/>
    </contour>
    <contour>
      <point x="111" y="0" type="line"/>
      <point x="335" y="692" type="line"/>
      <point x="297" y="713" type="line"/>
      <point x="223" y="713" type="line"/>
      <point x="245" y="646" type="line"/>
      <point x="451" y="0" type="line"/>
      <point x="572" y="0" type="line"/>
      <point x="562" y="33"/>
      <point x="543" y="47"/>
      <point x="519" y="123" type="curve" smooth="yes"/>
      <point x="330" y="713" type="line"/>
      <point x="266" y="713" type="line"/>
      <point x="62" y="123" type="line" smooth="yes"/>
      <point x="36" y="48"/>
      <point x="19" y="33"/>
      <point x="8" y="0" type="curve"/>
    </contour>
  </outline>
</glyph>
<glyph name="B" format="1">
  <advance width="577"/>
  <unicode hex="0042"/>
  <outline>
    <contour>
      <point x="104" y="713" type="line"/>
      <point x="104" y="635" type="line"/>
      <point x="288" y="635" type="line"/>
      <point x="367" y="635"/>
      <point x="392" y="595"/>
      <point x="392" y="549" type="curve"/>
      <point x="392" y="460"/>
      <point x="370" y="403"/>
      <point x="251" y="403" type="curve"/>
      <point x="108" y="403" type="line"/>
      <point x="108" y="325" type="line"/>
      <point x="291" y="325" type="line"/>
      <point x="388" y="325"/>
      <point x="427" y="307"/>
      <point x="427" y="224" type="curve"/>
      <point x="427" y="122"/>
      <point x="386" y="78"/>
      <point x="256" y="78" type="curve"/>
      <point x="104" y="78" type="line"/>
      <point x="104" y="0" type="line"/>
      <point x="254" y="0" type="line"/>
      <point x="460" y="0"/>
      <point x="548" y="77"/>
      <point x="548" y="226" type="curve"/>
      <point x="548" y="362"/>
      <point x="431" y="391"/>
      <point x="316" y="391" type="curve"/>
      <point x="316" y="352" type="line"/>
      <point x="421" y="352"/>
      <point x="512" y="456"/>
      <point x="512" y="549" type="curve" smooth="yes"/>
      <point x="512" y="661"/>
      <point x="440" y="713"/>
      <point x="293" y="713" type="curve"/>
    </contour>
    <contour>
      <point x="212" y="713" type="line"/>
      <point x="72" y="713" type="line"/>
      <point x="72" y="703" type="line"/>
      <point x="74" y="682"/>
      <point x="87" y="610"/>
      <point x="87" y="543" type="curve"/>
      <point x="87" y="147" type="line" smooth="yes"/>
      <point x="87" y="101"/>
      <point x="75" y="33"/>
      <point x="73" y="10" type="curve"/>
      <point x="73" y="0" type="line"/>
      <point x="197" y="0" type="line"/>
      <point x="197" y="643" type="line"/>
    </contour>
  </outline>
</glyph>
<glyph name="D" format="1">
  <advance width="696"/>
  <unicode hex="0044"/>
  <outline>
    <contour>
      <point x="229" y="708" type="line"/>
      <point x="214" y="638" type="line"/>
      <point x="214" y="0" type="line"/>
      <point x="90" y="0" type="line"/>
      <point x="90" y="10" type="line"/>
      <point x="92" y="33"/>
      <point x="104" y="101"/>
      <point x="104" y="147" type="curve" smooth="yes"/>
      <point x="104" y="538" type="line"/>
      <point x="104" y="605"/>
      <point x="91" y="677"/>
      <point x="89" y="698" type="curve"/>
      <point x="89" y="708" type="line"/>
    </contour>
    <contour>
      <point x="172" y="708" type="line"/>
      <point x="319" y="708" type="line"/>
      <point x="523" y="708"/>
      <point x="648" y="640"/>
      <point x="648" y="409" type="curve" smooth="yes"/>
      <point x="648" y="119"/>
      <point x="510" y="0"/>
      <point x="304" y="0" type="curve"/>
      <point x="137" y="0" type="line"/>
      <point x="137" y="78" type="line"/>
      <point x="297" y="78" type="line"/>
      <point x="454" y="78"/>
      <point x="524" y="153"/>
      <point x="524" y="409" type="curve"/>
      <point x="524" y="591"/>
      <point x="458" y="630"/>
      <point x="306" y="630" type="curve"/>
      <point x="172" y="630" type="line"/>
    </contour>
  </outline>
</glyph>
<glyph name="E" format="1">
  <advance width="525"/>
  <unicode hex="0045"/>
  <outline>
    <contour>
      <point x="212" y="708" type="line"/>
      <point x="72" y="708" type="line"/>
      <point x="72" y="698" type="line"/>
      <point x="74" y="677"/>
      <point x="87" y="605"/>
      <point x="87" y="538" type="curve"/>
      <point x="87" y="147" type="line" smooth="yes"/>
      <point x="87" y="101"/>
      <point x="75" y="33"/>
      <point x="73" y="10" type="curve"/>
      <point x="73" y="0" type="line"/>
      <point x="197" y="0" type="line"/>
      <point x="197" y="537" type="line" smooth="yes"/>
      <point x="197" y="605"/>
      <point x="210" y="677"/>
      <point x="212" y="698" type="curve"/>
    </contour>
    <contour>
      <point x="403" y="307" type="curve"/>
      <point x="413" y="307" type="line"/>
      <point x="413" y="421" type="line"/>
      <point x="403" y="421" type="line"/>
      <point x="387" y="418"/>
      <point x="350" y="403"/>
      <point x="278" y="403" type="curve" smooth="yes"/>
      <point x="189" y="403" type="line"/>
      <point x="189" y="403"/>
      <point x="189" y="325"/>
      <point x="189" y="325" type="curve"/>
      <point x="278" y="325" type="line" smooth="yes"/>
      <point x="350" y="325"/>
      <point x="387" y="310"/>
    </contour>
    <contour>
      <point x="437" y="612" type="curve"/>
      <point x="447" y="612" type="line"/>
      <point x="447" y="708" type="line"/>
      <point x="189" y="708" type="line"/>
      <point x="189" y="708"/>
      <point x="189" y="630"/>
      <point x="189" y="630" type="curve"/>
      <point x="312" y="630" type="line" smooth="yes"/>
      <point x="384" y="630"/>
      <point x="421" y="615"/>
    </contour>
    <contour>
      <point x="453" y="96" type="line"/>
      <point x="437" y="93"/>
      <point x="400" y="78"/>
      <point x="328" y="78" type="curve" smooth="yes"/>
      <point x="189" y="78" type="line"/>
      <point x="189" y="78"/>
      <point x="189" y="0"/>
      <point x="189" y="0" type="curve"/>
      <point x="463" y="0" type="line"/>
      <point x="463" y="96" type="line"/>
    </contour>
  </outline>
</glyph>
<glyph name="G" format="1">
  <advance width="620"/>
  <unicode hex="0047"/>
  <outline>
    <contour>
      <point x="572" y="78" type="line"/>
      <point x="481" y="78" type="line"/>
      <point x="481" y="166" type="line" smooth="yes"/>
      <point x="481" y="243"/>
      <point x="471" y="284"/>
      <point x="466" y="330" type="curve"/>
      <point x="466" y="340" type="line"/>
      <point x="587" y="340" type="line"/>
      <point x="587" y="330" type="line"/>
      <point x="582" y="284"/>
      <point x="572" y="243"/>
      <point x="572" y="165" type="curve" smooth="yes"/>
    </contour>
    <contour>
      <point x="554" y="556" type="line"/>
      <point x="507" y="593"/>
      <point x="432" y="619"/>
      <point x="360" y="619" type="curve"/>
      <point x="229" y="619"/>
      <point x="159" y="546"/>
      <point x="159" y="365" type="curve" smooth="yes"/>
      <point x="159" y="180"/>
      <point x="247" y="68"/>
      <point x="360" y="68" type="curve"/>
      <point x="418" y="68"/>
      <point x="519" y="96"/>
      <point x="572" y="139" type="curve"/>
      <point x="572" y="53" type="line"/>
      <point x="525" y="15"/>
      <point x="427" y="-12"/>
      <point x="348" y="-12" type="curve"/>
      <point x="159" y="-12"/>
      <point x="40" y="119"/>
      <point x="40" y="349" type="curve" smooth="yes"/>
      <point x="40" y="578"/>
      <point x="188" y="711"/>
      <point x="372" y="711" type="curve" smooth="yes"/>
      <point x="423" y="711"/>
      <point x="507" y="700"/>
      <point x="554" y="669" type="curve"/>
    </contour>
  </outline>
</glyph>
<glyph name="J" format="1">
  <advance width="500"/>
  <unicode hex="004A"/>
  <outline>
    <contour>
      <point x="62" y="90" type="curve"/>
      <point x="62" y="23" type="line"/>
      <point x="89" y="1"/>
      <point x="126" y="-13"/>
      <point x="175" y="-13" type="curve" smooth="yes"/>
      <point x="243" y="-13"/>
      <point x="300" y="27"/>
      <point x="300" y="124" type="curve" smooth="yes"/>
      <point x="300" y="201" type="line"/>
      <point x="190" y="201" type="line"/>
      <point x="190" y="160" type="line" smooth="yes"/>
      <point x="190" y="78"/>
      <point x="146" y="62"/>
    </contour>
    <contour>
      <point x="300" y="146" type="line"/>
      <point x="300" y="533" type="line" smooth="yes"/>
      <point x="300" y="611"/>
      <point x="310" y="652"/>
      <point x="315" y="698" type="curve"/>
      <point x="315" y="708" type="line"/>
      <point x="175" y="708" type="line"/>
      <point x="175" y="698" type="line"/>
      <point x="180" y="652"/>
      <point x="190" y="611"/>
      <point x="190" y="534" type="curve" smooth="yes"/>
      <point x="190" y="146" type="line"/>
    </contour>
  </outline>
</glyph>
<glyph name="K" format="1">
  <advance width="500"/>
  <unicode hex="004B"/>
  <outline>
    <contour>
      <point x="206" y="10" type="line"/>
      <point x="203" y="43"/>
      <point x="192" y="100"/>
      <point x="192" y="146" type="curve" smooth="yes"/>
      <point x="192" y="533" type="line" smooth="yes"/>
      <point x="192" y="611"/>
      <point x="202" y="652"/>
      <point x="207" y="698" type="curve"/>
      <point x="207" y="708" type="line"/>
      <point x="67" y="708" type="line"/>
      <point x="67" y="698" type="line"/>
      <point x="72" y="652"/>
      <point x="82" y="611"/>
      <point x="82" y="534" type="curve" smooth="yes"/>
      <point x="82" y="146" type="line" smooth="yes"/>
      <point x="82" y="100"/>
      <point x="71" y="43"/>
      <point x="68" y="10" type="curve"/>
      <point x="68" y="0" type="line"/>
      <point x="206" y="0" type="line"/>
    </contour>
  </outline>
</glyph>
<glyph name="L" format="1">
  <advance width="482"/>
  <unicode hex="004C"/>
  <outline>
    <contour>
      <point x="212" y="708" type="line"/>
      <point x="72" y="708" type="line"/>
      <point x="72" y="698" type="line"/>
      <point x="74" y="677"/>
      <point x="87" y="605"/>
      <point x="87" y="538" type="curve"/>
      <point x="87" y="147" type="line" smooth="yes"/>
      <point x="87" y="101"/>
      <point x="75" y="33"/>
      <point x="73" y="10" type="curve"/>
      <point x="73" y="0" type="line"/>
      <point x="197" y="0" type="line"/>
      <point x="197" y="537" type="line" smooth="yes"/>
      <point x="197" y="605"/>
      <point x="210" y="677"/>
      <point x="212" y="698" type="curve"/>
    </contour>
    <contour>
      <point x="453" y="96" type="line"/>
      <point x="437" y="93"/>
      <point x="400" y="78"/>
      <point x="328" y="78" type="curve" smooth="yes"/>
      <point x="189" y="78" type="line"/>
      <point x="189" y="78"/>
      <point x="189" y="0"/>
      <point x="189" y="0" type="curve"/>
      <point x="463" y="0" type="line"/>
      <point x="463" y="96" type="line"/>
    </contour>
  </outline>
</glyph>
<glyph name="O" format="1">
  <advance width="667"/>
  <unicode hex="004F"/>
  <outline>
    <contour>
      <point x="135" y="-12"/>
      <point x="25" y="119"/>
      <point x="25" y="349" type="curve" smooth="yes"/>
      <point x="25" y="578"/>
      <point x="164" y="711"/>
      <point x="348" y="711" type="curve" smooth="yes"/>
      <point x="525" y="711"/>
      <point x="636" y="612"/>
      <point x="639" y="375" type="curve"/>
      <point x="636" y="147"/>
      <point x="519" y="-12"/>
      <point x="324" y="-12" type="curve"/>
    </contour>
    <contour>
      <point x="205" y="619"/>
      <point x="144" y="546"/>
      <point x="144" y="365" type="curve" smooth="yes"/>
      <point x="144" y="180"/>
      <point x="223" y="68"/>
      <point x="336" y="68" type="curve"/>
      <point x="465" y="68"/>
      <point x="517" y="195"/>
      <point x="517" y="365" type="curve" smooth="yes"/>
      <point x="517" y="534"/>
      <point x="464" y="619"/>
      <point x="336" y="619" type="curve"/>
    </contour>
  </outline>
</glyph>
<glyph name="P" format="1">
  <advance width="562"/>
  <unicode hex="0050"/>
  <outline>
    <contour>
      <point x="211" y="10" type="line"/>
      <point x="208" y="43"/>
      <point x="197" y="100"/>
      <point x="197" y="146" type="curve"/>
      <point x="197" y="146"/>
      <point x="197" y="698"/>
      <point x="197" y="698" type="curve"/>
      <point x="212" y="708" type="line"/>
      <point x="72" y="708" type="line"/>
      <point x="72" y="698" type="line"/>
      <point x="77" y="652"/>
      <point x="87" y="611"/>
      <point x="87" y="534" type="curve" smooth="yes"/>
      <point x="87" y="146" type="line" smooth="yes"/>
      <point x="87" y="100"/>
      <point x="76" y="43"/>
      <point x="73" y="10" type="curve"/>
      <point x="73" y="0" type="line"/>
      <point x="211" y="0" type="line"/>
    </contour>
    <contour>
      <point x="104" y="708" type="line"/>
      <point x="104" y="630" type="line"/>
      <point x="305" y="630" type="line"/>
      <point x="404" y="630"/>
      <point x="434" y="598"/>
      <point x="434" y="527" type="curve"/>
      <point x="434" y="438"/>
      <point x="404" y="380"/>
      <point x="285" y="380" type="curve"/>
      <point x="108" y="380" type="line"/>
      <point x="108" y="302" type="line"/>
      <point x="286" y="302" type="line"/>
      <point x="463" y="302"/>
      <point x="548" y="405"/>
      <point x="548" y="527" type="curve" smooth="yes"/>
      <point x="548" y="634"/>
      <point x="482" y="708"/>
      <point x="335" y="708" type="curve"/>
    </contour>
  </outline>
</glyph>
<glyph name="Q" format="1">
  <advance width="652"/>
  <unicode hex="0051"/>
  <outline>
    <contour>
      <point x="388" y="74" type="line"/>
      <point x="499" y="72" type="line"/>
      <point x="652" y="-162" type="line"/>
      <point x="520" y="-162" type="line"/>
    </contour>
    <contour>
      <point x="205" y="619"/>
      <point x="144" y="546"/>
      <point x="144" y="365" type="curve" smooth="yes"/>
      <point x="144" y="180"/>
      <point x="223" y="68"/>
      <point x="336" y="68" type="curve"/>
      <point x="465" y="68"/>
      <point x="517" y="195"/>
      <point x="517" y="365" type="curve" smooth="yes"/>
      <point x="517" y="534"/>
      <point x="464" y="619"/>
      <point x="336" y="619" type="curve"/>
    </contour>
    <contour>
      <point x="135" y="-12"/>
      <point x="25" y="119"/>
      <point x="25" y="349" type="curve" smooth="yes"/>
      <point x="25" y="578"/>
      <point x="164" y="711"/>
      <point x="348" y="711" type="curve" smooth="yes"/>
      <point x="525" y="711"/>
      <point x="636" y="612"/>
      <point x="639" y="375" type="curve"/>
      <point x="636" y="147"/>
      <point x="519" y="-12"/>
      <point x="324" y="-12" type="curve"/>
    </contour>
  </outline>
</glyph>
<glyph name="R" format="1">
  <advance width="578"/>
  <unicode hex="0052"/>
  <outline>
    <contour>
      <point x="264" y="326" type="line"/>
      <point x="421.0" y="0.0" type="line"/>
      <point x="559" y="0" type="line"/>
      <point x="545" y="34"/>
      <point x="525" y="27"/>
      <point x="475" y="124" type="curve" smooth="yes"/>
      <point x="371" y="326" type="line"/>
    </contour>
    <contour>
      <point x="211" y="10" type="line"/>
      <point x="208" y="43"/>
      <point x="197" y="100"/>
      <point x="197" y="146" type="curve"/>
      <point x="197" y="146"/>
      <point x="197" y="698"/>
      <point x="197" y="698" type="curve"/>
      <point x="212" y="708" type="line"/>
      <point x="72" y="708" type="line"/>
      <point x="72" y="698" type="line"/>
      <point x="77" y="652"/>
      <point x="87" y="611"/>
      <point x="87" y="534" type="curve" smooth="yes"/>
      <point x="87" y="146" type="line" smooth="yes"/>
      <point x="87" y="100"/>
      <point x="76" y="43"/>
      <point x="73" y="10" type="curve"/>
      <point x="73" y="0" type="line"/>
      <point x="211" y="0" type="line"/>
    </contour>
    <contour>
      <point x="104" y="708" type="line"/>
      <point x="104" y="630" type="line"/>
      <point x="305" y="630" type="line"/>
      <point x="404" y="630"/>
      <point x="434" y="598"/>
      <point x="434" y="527" type="curve"/>
      <point x="434" y="438"/>
      <point x="404" y="380"/>
      <point x="285" y="380" type="curve"/>
      <point x="108" y="380" type="line"/>
      <point x="108" y="302" type="line"/>
      <point x="286" y="302" type="line"/>
      <point x="463" y="302"/>
      <point x="548" y="405"/>
      <point x="548" y="527" type="curve" smooth="yes"/>
      <point x="548" y="634"/>
      <point x="482" y="708"/>
      <point x="335" y="708" type="curve"/>
    </contour>
  </outline>
</glyph>
<glyph name="S" format="1">
  <advance width="516"/>
  <unicode hex="0053"/>
  <outline>
    <contour>
      <point x="442" y="286"/>
      <point x="399" y="334"/>
      <point x="289" y="389" type="curve" smooth="yes"/>
      <point x="217" y="425"/>
      <point x="139" y="444"/>
      <point x="139" y="534" type="curve" smooth="yes"/>
      <point x="139" y="599"/>
      <point x="197" y="630"/>
      <point x="267" y="630" type="curve" smooth="yes"/>
      <point x="329" y="630"/>
      <point x="387" y="609"/>
      <point x="432" y="589" type="curve"/>
      <point x="432" y="688" type="line"/>
      <point x="395" y="701"/>
      <point x="333" y="721"/>
      <point x="268" y="721" type="curve" smooth="yes"/>
      <point x="148" y="721"/>
      <point x="33" y="662"/>
      <point x="33" y="536" type="curve" smooth="yes"/>
      <point x="33" y="399"/>
      <point x="143" y="352"/>
      <point x="209" y="319" type="curve" smooth="yes"/>
      <point x="303" y="272"/>
      <point x="332" y="254"/>
      <point x="332" y="190" type="curve"/>
      <point x="332" y="125"/>
      <point x="278" y="80"/>
      <point x="201" y="80" type="curve" smooth="yes"/>
      <point x="142" y="80"/>
      <point x="82" y="109"/>
      <point x="38" y="136" type="curve"/>
      <point x="38" y="23" type="line"/>
      <point x="90" y="3"/>
      <point x="137" y="-12"/>
      <point x="202" y="-12" type="curve" smooth="yes"/>
      <point x="345" y="-12"/>
      <point x="442" y="80"/>
      <point x="442" y="190" type="curve" smooth="yes"/>
    </contour>
  </outline>
</glyph>
<glyph name="U" format="1">
  <advance width="656"/>
  <unicode hex="0055"/>
  <outline>
    <contour>
      <point x="570" y="534" type="curve"/>
      <point x="493" y="534" type="line"/>
      <point x="493" y="611"/>
      <point x="483" y="652"/>
      <point x="478" y="698" type="curve"/>
      <point x="478" y="708" type="line"/>
      <point x="585" y="708" type="line"/>
      <point x="585" y="698" type="line"/>
      <point x="580" y="652"/>
      <point x="570" y="612"/>
    </contour>
    <contour>
      <point x="177" y="534" type="curve"/>
      <point x="67" y="534" type="line"/>
      <point x="67" y="611"/>
      <point x="57" y="652"/>
      <point x="52" y="698" type="curve"/>
      <point x="52" y="708" type="line"/>
      <point x="192" y="708" type="line"/>
      <point x="192" y="698" type="line"/>
      <point x="187" y="652"/>
      <point x="177" y="612"/>
    </contour>
    <contour>
      <point x="177" y="583" type="line"/>
      <point x="177" y="311" type="line" smooth="yes"/>
      <point x="177" y="163"/>
      <point x="218" y="72"/>
      <point x="330" y="72" type="curve"/>
      <point x="446" y="72"/>
      <point x="493" y="159"/>
      <point x="493" y="301" type="curve" smooth="yes"/>
      <point x="493" y="543" type="line"/>
      <point x="570" y="543" type="line"/>
      <point x="570" y="281" type="line" smooth="yes"/>
      <point x="570" y="78"/>
      <point x="464" y="-12"/>
      <point x="330" y="-12" type="curve"/>
      <point x="158" y="-12"/>
      <point x="67" y="85"/>
      <point x="67" y="291" type="curve" smooth="yes"/>
      <point x="67" y="583" type="line"/>
    </contour>
  </outline>
</glyph>
<glyph name="V" format="1">
  <advance width="543"/>
  <unicode hex="0056"/>
  <outline>
    <contour>
      <point x="479" y="713" type="line"/>
      <point x="261" y="21" type="line"/>
      <point x="299" y="0" type="line"/>
      <point x="323" y="0" type="line"/>
      <point x="321" y="67" type="line"/>
      <point x="109" y="713" type="line"/>
      <point x="-12" y="713" type="line"/>
      <point x="-2" y="680"/>
      <point x="16" y="666"/>
      <point x="41" y="590" type="curve" smooth="yes"/>
      <point x="236" y="0" type="line"/>
      <point x="330" y="0" type="line"/>
      <point x="528" y="590" type="line" smooth="yes"/>
      <point x="553" y="665"/>
      <point x="571" y="680"/>
      <point x="582" y="713" type="curve"/>
    </contour>
  </outline>
</glyph>
<glyph name="f" format="1">
  <advance width="354"/>
  <unicode hex="0066"/>
  <outline>
    <contour>
      <point x="228" y="10" type="line"/>
      <point x="225" y="43"/>
      <point x="214" y="100"/>
      <point x="214" y="146" type="curve"/>
      <point x="214" y="489" type="line" smooth="yes"/>
      <point x="113" y="489" type="line"/>
      <point x="113" y="146" type="line" smooth="yes"/>
      <point x="113" y="100"/>
      <point x="102" y="43"/>
      <point x="99" y="10" type="curve"/>
      <point x="99" y="0" type="line"/>
      <point x="228" y="0" type="line"/>
    </contour>
    <contour>
      <point x="338" y="418" type="line"/>
      <point x="338" y="492" type="line"/>
      <point x="30" y="492" type="line"/>
      <point x="30" y="418" type="line"/>
    </contour>
    <contour>
      <point x="382" y="702" type="line"/>
      <point x="350" y="713"/>
      <point x="338" y="716"/>
      <point x="275" y="716" type="curve" smooth="yes"/>
      <point x="185" y="716"/>
      <point x="113" y="646"/>
      <point x="113" y="523" type="curve" smooth="yes"/>
      <point x="113.0" y="475.0" type="line"/>
      <point x="214.0" y="475.0" type="line"/>
      <point x="214" y="509" type="line" smooth="yes"/>
      <point x="214" y="586"/>
      <point x="226" y="629"/>
      <point x="282" y="629" type="curve" smooth="yes"/>
      <point x="329" y="629"/>
      <point x="355" y="621"/>
      <point x="382" y="606" type="curve"/>
    </contour>
  </outline>
</glyph>
<glyph name="g" format="1">
  <advance width="527"/>
  <unicode hex="0067"/>
  <outline>
    <contour>
      <point x="147" y="140"/>
      <point x="61" y="215"/>
      <point x="61" y="333" type="curve" smooth="yes"/>
      <point x="61" y="449"/>
      <point x="152" y="525"/>
      <point x="272" y="525" type="curve" smooth="yes"/>
      <point x="377" y="525"/>
      <point x="460" y="475"/>
      <point x="460" y="347" type="curve" smooth="yes"/>
      <point x="460" y="234"/>
      <point x="383" y="140"/>
      <point x="254" y="140" type="curve"/>
    </contour>
    <contour>
      <point x="196" y="450"/>
      <point x="164" y="410"/>
      <point x="164" y="341" type="curve" smooth="yes"/>
      <point x="164" y="262"/>
      <point x="213" y="213"/>
      <point x="266" y="213" type="curve"/>
      <point x="332" y="213"/>
      <point x="358" y="261"/>
      <point x="358" y="341" type="curve" smooth="yes"/>
      <point x="358" y="402"/>
      <point x="328" y="450"/>
      <point x="259" y="450" type="curve"/>
    </contour>
    <contour>
      <point x="187" y="184" type="line"/>
      <point x="167" y="163"/>
      <point x="148" y="154"/>
      <point x="148" y="124" type="curve"/>
      <point x="148" y="97"/>
      <point x="170" y="87"/>
      <point x="233" y="86" type="curve"/>
      <point x="315" y="86" type="line"/>
      <point x="443" y="86"/>
      <point x="499" y="41"/>
      <point x="499" y="-59" type="curve" smooth="yes"/>
      <point x="499" y="-154"/>
      <point x="406" y="-220"/>
      <point x="268" y="-220" type="curve"/>
      <point x="152" y="-220"/>
      <point x="57" y="-182"/>
      <point x="57" y="-68" type="curve"/>
      <point x="57" y="-9"/>
      <point x="107" y="41"/>
      <point x="131" y="58" type="curve"/>
      <point x="181" y="22" type="line"/>
      <point x="150" y="-6"/>
      <point x="129" y="-39"/>
      <point x="129" y="-68" type="curve" smooth="yes"/>
      <point x="129" y="-129"/>
      <point x="196" y="-139"/>
      <point x="268" y="-139" type="curve"/>
      <point x="344" y="-139"/>
      <point x="410" y="-111"/>
      <point x="410" y="-59" type="curve"/>
      <point x="410" y="-21"/>
      <point x="388" y="-2"/>
      <point x="330" y="-2" type="curve"/>
      <point x="264" y="-2" type="line"/>
      <point x="146" y="-2"/>
      <point x="61" y="31"/>
      <point x="61" y="101" type="curve"/>
      <point x="61" y="165"/>
      <point x="128" y="202"/>
      <point x="154" y="220" type="curve"/>
    </contour>
    <contour>
      <point x="375" y="501" type="line"/>
      <point x="433" y="501"/>
      <point x="453" y="551"/>
      <point x="525" y="551" type="curve"/>
      <point x="541" y="551" type="line"/>
      <point x="541" y="450" type="line"/>
      <point x="475" y="472"/>
      <point x="467" y="448"/>
      <point x="375" y="440" type="curve"/>
    </contour>
  </outline>
</glyph>
<glyph name="h" format="1">
  <advance width="559"/>
  <unicode hex="0068"/>
  <outline>
    <contour>
      <point x="174" y="366" type="curve"/>
      <point x="208" y="392"/>
      <point x="255" y="431"/>
      <point x="316" y="431" type="curve" smooth="yes"/>
      <point x="381" y="431"/>
      <point x="391" y="392"/>
      <point x="391" y="319" type="curve" smooth="yes"/>
      <point x="391" y="239" type="line" smooth="yes"/>
      <point x="391" y="150"/>
      <point x="386" y="60"/>
      <point x="383" y="10" type="curve"/>
      <point x="383" y="0" type="line"/>
      <point x="510" y="0" type="line"/>
      <point x="510" y="10" type="line"/>
      <point x="507" y="43"/>
      <point x="496" y="100"/>
      <point x="496" y="145" type="curve" smooth="yes"/>
      <point x="496" y="350" type="line" smooth="yes"/>
      <point x="496" y="461"/>
      <point x="451" y="525"/>
      <point x="350" y="525" type="curve" smooth="yes"/>
      <point x="311" y="525"/>
      <point x="269" y="509"/>
      <point x="242" y="494" type="curve"/>
      <point x="145" y="399" type="line"/>
      <point x="145" y="334" type="line"/>
      <point x="174" y="334" type="line"/>
      <point x="174" y="334"/>
      <point x="174" y="366"/>
    </contour>
    <contour>
      <point x="184" y="10" type="line"/>
      <point x="182" y="38"/>
      <point x="176" y="150"/>
      <point x="176" y="239" type="curve" smooth="yes"/>
      <point x="176" y="432" type="line"/>
      <point x="176" y="710" type="line" smooth="yes"/>
      <point x="40" y="710" type="line"/>
      <point x="40" y="700" type="line"/>
      <point x="50" y="656"/>
      <point x="71" y="593"/>
      <point x="71" y="466" type="curve" smooth="yes"/>
      <point x="71" y="146" type="line" smooth="yes"/>
      <point x="71" y="100"/>
      <point x="60" y="43"/>
      <point x="57" y="10" type="curve"/>
      <point x="57" y="0" type="line"/>
      <point x="184" y="0" type="line"/>
    </contour>
  </outline>
</glyph>
<glyph name="j" format="1">
  <advance width="269"/>
  <unicode hex="006A"/>
  <outline>
    <contour>
      <point x="133" y="599" type="curve"/>
      <point x="153" y="636"/>
      <point x="203" y="680"/>
      <point x="241" y="701" type="curve"/>
      <point x="203" y="723"/>
      <point x="154" y="765"/>
      <point x="133" y="802" type="curve"/>
      <point x="113" y="765"/>
      <point x="63" y="721"/>
      <point x="24" y="700" type="curve"/>
      <point x="63" y="679"/>
      <point x="111" y="636"/>
    </contour>
    <contour>
      <point x="-46" y="-100" type="curve"/>
      <point x="-46" y="-167" type="line"/>
      <point x="-19" y="-189"/>
      <point x="14" y="-203"/>
      <point x="63" y="-203" type="curve" smooth="yes"/>
      <point x="131" y="-203"/>
      <point x="187" y="-163"/>
      <point x="187" y="-66" type="curve" smooth="yes"/>
      <point x="187" y="11" type="line"/>
      <point x="82" y="11" type="line"/>
      <point x="82" y="-30" type="line" smooth="yes"/>
      <point x="82" y="-112"/>
      <point x="38" y="-128"/>
    </contour>
    <contour>
      <point x="187" y="0" type="line"/>
      <point x="187" y="338" type="line" smooth="yes"/>
      <point x="187" y="416"/>
      <point x="197" y="457"/>
      <point x="202" y="503" type="curve"/>
      <point x="202" y="513" type="line"/>
      <point x="67" y="513" type="line"/>
      <point x="67" y="503" type="line"/>
      <point x="72" y="457"/>
      <point x="82" y="416"/>
      <point x="82" y="339" type="curve"/>
      <point x="82" y="339"/>
      <point x="82" y="0"/>
      <point x="82" y="0" type="curve"/>
    </contour>
  </outline>
</glyph>
<glyph name="k" format="1">
  <advance width="460"/>
  <unicode hex="006B"/>
  <outline>
    <contour>
      <point x="245" y="333" type="line"/>
      <point x="97" y="333" type="line"/>
      <point x="97" y="244" type="line"/>
      <point x="245" y="244" type="line"/>
    </contour>
    <contour>
      <point x="387" y="0" type="curve"/>
      <point x="497" y="0" type="line"/>
      <point x="291" y="315" type="line"/>
      <point x="291" y="262" type="line"/>
      <point x="462" y="513" type="line"/>
      <point x="347" y="513" type="line"/>
      <point x="202" y="301" type="line"/>
      <point x="202" y="276" type="line"/>
      <point x="202" y="276"/>
      <point x="387" y="0"/>
    </contour>
    <contour>
      <point x="163" y="0" type="line"/>
      <point x="163" y="710" type="line"/>
      <point x="62" y="710" type="line"/>
      <point x="62" y="0" type="line"/>
    </contour>
  </outline>
</glyph>
<glyph name="l" format="1">
  <advance width="290"/>
  <unicode hex="006C"/>
  <outline>
    <contour>
      <point x="302" y="91" type="line"/>
      <point x="218" y="63"/>
      <point x="174" y="79"/>
      <point x="174" y="161" type="curve" smooth="yes"/>
      <point x="174" y="202" type="line"/>
      <point x="69" y="202" type="line"/>
      <point x="69" y="125" type="line" smooth="yes"/>
      <point x="69" y="28"/>
      <point x="125" y="-12"/>
      <point x="193" y="-12" type="curve" smooth="yes"/>
      <point x="242" y="-12"/>
      <point x="275" y="2"/>
      <point x="302" y="24" type="curve"/>
    </contour>
    <contour>
      <point x="69" y="705" type="line"/>
      <point x="69" y="198" type="line"/>
      <point x="69" y="198"/>
      <point x="174" y="198"/>
      <point x="174" y="198" type="curve"/>
      <point x="174" y="705" type="line"/>
    </contour>
  </outline>
</glyph>
<glyph name="o" format="1">
  <advance width="571"/>
  <unicode hex="006F"/>
  <outline>
    <contour>
      <point x="194" y="437"/>
      <point x="159" y="378"/>
      <point x="159" y="272" type="curve" smooth="yes"/>
      <point x="159" y="159"/>
      <point x="203" y="66"/>
      <point x="285" y="66" type="curve"/>
      <point x="387" y="66"/>
      <point x="422" y="152"/>
      <point x="422" y="272" type="curve" smooth="yes"/>
      <point x="422" y="385"/>
      <point x="385" y="437"/>
      <point x="286" y="437" type="curve"/>
    </contour>
    <contour>
      <point x="120" y="-12"/>
      <point x="45" y="110"/>
      <point x="46" y="262" type="curve" smooth="yes"/>
      <point x="47" y="426"/>
      <point x="156" y="525"/>
      <point x="296" y="525" type="curve" smooth="yes"/>
      <point x="438" y="525"/>
      <point x="535" y="461"/>
      <point x="535" y="282" type="curve" smooth="yes"/>
      <point x="535" y="110"/>
      <point x="433" y="-12"/>
      <point x="275" y="-12" type="curve"/>
    </contour>
  </outline>
</glyph>
<glyph name="p" format="1">
  <advance width="573"/>
  <unicode hex="0070"/>
  <outline>
    <contour>
      <point x="190" y="-216" type="line"/>
      <point x="187" y="-183"/>
      <point x="176" y="-126"/>
      <point x="176" y="-80" type="curve" smooth="yes"/>
      <point x="176" y="408" type="line" smooth="yes"/>
      <point x="160" y="412" type="line"/>
      <point x="160" y="447"/>
      <point x="169" y="463"/>
      <point x="169" y="503" type="curve"/>
      <point x="169" y="513" type="line"/>
      <point x="40" y="513" type="line"/>
      <point x="40" y="500" type="line"/>
      <point x="50" y="457"/>
      <point x="71" y="395"/>
      <point x="71" y="279" type="curve" smooth="yes"/>
      <point x="71" y="-80" type="line" smooth="yes"/>
      <point x="71" y="-126"/>
      <point x="60" y="-183"/>
      <point x="57" y="-216" type="curve"/>
    </contour>
    <contour>
      <point x="176" y="89" type="curve"/>
      <point x="176" y="387" type="line"/>
      <point x="199" y="417"/>
      <point x="239" y="436"/>
      <point x="281" y="436" type="curve" smooth="yes"/>
      <point x="363" y="436"/>
      <point x="409" y="396"/>
      <point x="409" y="272" type="curve" smooth="yes"/>
      <point x="409" y="128"/>
      <point x="357" y="65"/>
      <point x="268" y="65" type="curve" smooth="yes"/>
      <point x="237" y="65"/>
      <point x="197" y="78"/>
    </contour>
    <contour>
      <point x="136" y="420" type="curve"/>
      <point x="75" y="239" type="line"/>
      <point x="75" y="221" type="line" smooth="yes"/>
      <point x="75" y="133"/>
      <point x="72" y="74"/>
      <point x="71" y="41" type="curve"/>
      <point x="120" y="15"/>
      <point x="187" y="-12"/>
      <point x="255" y="-12" type="curve" smooth="yes"/>
      <point x="391" y="-12"/>
      <point x="522" y="64"/>
      <point x="522" y="281" type="curve" smooth="yes"/>
      <point x="522" y="456"/>
      <point x="435" y="525"/>
      <point x="320" y="525" type="curve" smooth="yes"/>
      <point x="240" y="525"/>
      <point x="188" y="488"/>
    </contour>
  </outline>
</glyph>
<glyph name="s" format="1">
  <advance width="449"/>
  <unicode hex="0073"/>
  <outline>
    <contour>
      <point x="411" y="222"/>
      <point x="367" y="259"/>
      <point x="249" y="297" type="curve" smooth="yes"/>
      <point x="168" y="323"/>
      <point x="147" y="342"/>
      <point x="147" y="379" type="curve" smooth="yes"/>
      <point x="147" y="414"/>
      <point x="176" y="440"/>
      <point x="239" y="440" type="curve" smooth="yes"/>
      <point x="299" y="440"/>
      <point x="341" y="424"/>
      <point x="376" y="411" type="curve"/>
      <point x="399" y="496" type="line"/>
      <point x="357" y="513"/>
      <point x="312" y="524"/>
      <point x="237" y="524" type="curve" smooth="yes"/>
      <point x="122" y="524"/>
      <point x="47" y="463"/>
      <point x="47" y="378" type="curve" smooth="yes"/>
      <point x="47" y="297"/>
      <point x="99" y="254"/>
      <point x="208" y="225" type="curve" smooth="yes"/>
      <point x="286" y="204"/>
      <point x="310" y="180"/>
      <point x="310" y="144" type="curve"/>
      <point x="310" y="95"/>
      <point x="269" y="68"/>
      <point x="215" y="68" type="curve" smooth="yes"/>
      <point x="156" y="68"/>
      <point x="99" y="94"/>
      <point x="56" y="113" type="curve"/>
      <point x="28" y="33" type="line"/>
      <point x="76" y="10"/>
      <point x="142" y="-12"/>
      <point x="215" y="-12" type="curve" smooth="yes"/>
      <point x="321" y="-12"/>
      <point x="411" y="53"/>
      <point x="411" y="144" type="curve" smooth="yes"/>
    </contour>
  </outline>
</glyph>
<glyph name="u" format="1">
  <advance width="560"/>
  <unicode hex="0075"/>
  <outline>
    <contour>
      <point x="376" y="517" type="line"/>
      <point x="379" y="467"/>
      <point x="384" y="377"/>
      <point x="384" y="288" type="curve" smooth="yes"/>
      <point x="384" y="109" type="line" smooth="yes"/>
      <point x="401" y="89" type="line"/>
      <point x="405" y="54"/>
      <point x="399" y="37"/>
      <point x="408" y="0" type="curve"/>
      <point x="520" y="0" type="line"/>
      <point x="510" y="44"/>
      <point x="489" y="107"/>
      <point x="489" y="234" type="curve" smooth="yes"/>
      <point x="489" y="381" type="line" smooth="yes"/>
      <point x="489" y="427"/>
      <point x="500" y="484"/>
      <point x="503" y="517" type="curve"/>
    </contour>
    <contour>
      <point x="384" y="163" type="curve"/>
      <point x="352" y="129"/>
      <point x="308" y="78"/>
      <point x="245" y="78" type="curve" smooth="yes"/>
      <point x="183" y="78"/>
      <point x="166" y="112"/>
      <point x="166" y="185" type="curve" smooth="yes"/>
      <point x="166" y="288" type="line" smooth="yes"/>
      <point x="166" y="377"/>
      <point x="171" y="467"/>
      <point x="174" y="517" type="curve"/>
      <point x="51" y="517" type="line"/>
      <point x="54" y="484"/>
      <point x="65" y="427"/>
      <point x="65" y="382" type="curve" smooth="yes"/>
      <point x="65" y="163" type="line" smooth="yes"/>
      <point x="65" y="52"/>
      <point x="110" y="-12"/>
      <point x="211" y="-12" type="curve" smooth="yes"/>
      <point x="317" y="-12"/>
      <point x="370" y="60"/>
      <point x="413" y="105" type="curve"/>
      <point x="413" y="184" type="line"/>
      <point x="384" y="184" type="line"/>
      <point x="384" y="184"/>
      <point x="384" y="163"/>
    </contour>
  </outline>
</glyph>
<glyph name="y" format="1">
  <advance width="460"/>
  <unicode hex="0079"/>
  <outline>
    <contour>
      <point x="173" y="0" type="line"/>
      <point x="305" y="0" type="line"/>
      <point x="456" y="505" type="line"/>
      <point x="355" y="505" type="line"/>
      <point x="217" y="8" type="line"/>
      <point x="258" y="8" type="line"/>
      <point x="123" y="505" type="line"/>
      <point x="23" y="505" type="line"/>
    </contour>
    <contour>
      <point x="59" y="-133" type="curve"/>
      <point x="34" y="-216" type="line"/>
      <point x="62" y="-232"/>
      <point x="111" y="-245"/>
      <point x="153" y="-245" type="curve" smooth="yes"/>
      <point x="263" y="-245"/>
      <point x="310" y="-194"/>
      <point x="310" y="-81" type="curve" smooth="yes"/>
      <point x="310" y="21" type="line"/>
      <point x="209" y="21" type="line"/>
      <point x="209" y="-75" type="line" smooth="yes"/>
      <point x="209" y="-140"/>
      <point x="186" y="-156"/>
      <point x="135" y="-156" type="curve" smooth="yes"/>
      <point x="110" y="-156"/>
      <point x="82" y="-144"/>
    </contour>
  </outline>
</glyph>
<glyph name="n.alt" format="1">
  <advance width="569"/>
  <outline>
    <contour>
      <point x="174" y="366" type="curve"/>
      <point x="208" y="392"/>
      <point x="255" y="431"/>
      <point x="316" y="431" type="curve" smooth="yes"/>
      <point x="381" y="431"/>
      <point x="391" y="392"/>
      <point x="391" y="319" type="curve" smooth="yes"/>
      <point x="391" y="239" type="line" smooth="yes"/>
      <point x="391" y="150"/>
      <point x="386" y="60"/>
      <point x="383" y="10" type="curve"/>
      <point x="383" y="0" type="line"/>
      <point x="513" y="0" type="line"/>
      <point x="505" y="43"/>
      <point x="496" y="100"/>
      <point x="496" y="146" type="curve" smooth="yes"/>
      <point x="496" y="350" type="line" smooth="yes"/>
      <point x="496" y="461"/>
      <point x="451" y="525"/>
      <point x="350" y="525" type="curve" smooth="yes"/>
      <point x="311" y="525"/>
      <point x="269" y="509"/>
      <point x="242" y="494" type="curve"/>
      <point x="145" y="383" type="line"/>
      <point x="145" y="334" type="line"/>
      <point x="174" y="334" type="line"/>
      <point x="174" y="334"/>
      <point x="174" y="366"/>
    </contour>
    <contour>
      <point x="193" y="0" type="line"/>
      <point x="185" y="43"/>
      <point x="176" y="100"/>
      <point x="176" y="146" type="curve" smooth="yes"/>
      <point x="176" y="394" type="line" smooth="yes"/>
      <point x="158" y="414" type="line"/>
      <point x="158" y="441"/>
      <point x="166" y="471"/>
      <point x="166" y="511" type="curve"/>
      <point x="166" y="521" type="line"/>
      <point x="40" y="505" type="line"/>
      <point x="51" y="463"/>
      <point x="71" y="396"/>
      <point x="71" y="269" type="curve" smooth="yes"/>
      <point x="71" y="235" type="line" smooth="yes"/>
      <point x="71" y="146"/>
      <point x="66" y="60"/>
      <point x="63" y="10" type="curve"/>
      <point x="63" y="0" type="line"/>
    </contour>
  </outline>
</glyph>
